<svg id="Layer_1" data-name="Layer 1" xmlns="http://www.w3.org/2000/svg" viewBox="0 0 1080 845.57"><defs><style>.cls-1,.cls-2{fill:#f5ede0;}.cls-1{fill-rule:evenodd;}</style></defs><path class="cls-1" d="M678.93,87.24c.23.29,80.19,101.73-58.39,93.39l-.4-5.77c130.15,7.83,58.21-85.11,58-85.39Z"/><path class="cls-1" d="M643.84,60l-5.13,2.34s.59,11.81,13.78,14.08S668.77,68,668.77,68L693,77.78s7.69,6.94,13.9,5.33,5.27-4.77,5.27-4.77-.12-2.71,1.6-1.88,1.11,4.71-.44,6.71-2.83,1.49-3.22,2.49-4,2.77-8.53,2.55-7-1.55-8.21-2.71-2.88-2.55-3.82,0-1.56,5.43,2.32,7.42,6.66,2.89,9.93,1.78,4.38-1.94,4.88-1.55.42,1.22-.58,2.11-2.16.27-2.55,2.21.22,3.11-.83,3.44a52,52,0,0,1-6.71.28s-3.22-3.72-4.83-4.72a61.4,61.4,0,0,0-9.25-3.6c-2.39-.72-10.6-4.18-18.15-1S650,97.64,645.42,98.66c-23.5,5.23-23.4-14.14-13.56-17.74,7.4-2.71,6.38,4,5.43,5.5s.22,4,3.29,1.32,5.65-13.54-6.08-16.49-20.57,9.19-21.16,16.44,2.78,19.15,17.79,20.24c0,0-.58,6.55,7.08,11.78s23.43,14.48,30.79,19.38c24.87,16.59,42.4,44.89,36.42,75.61-4.28,22-5.61,25.52-5.61,25.52s-14.6-3.69-21.24-13.28c0,0-3.17-3-3.11-.33s7.66,9.55,15.76,12.84S722.59,250,727.4,251.17s5.65.76,5.65,3.63a25.09,25.09,0,0,1-1.46,8c-.67,1.74-19.79,31.39-27.6,39.53s-22,29.25-43.81,27.84-16.9-21-15.67-24.19a11.54,11.54,0,0,1,10.62-6.77,12.67,12.67,0,0,1,11.42,6.76s3.06,9.12-4,11.28-9.31-2.67-9.63-3.82-1.09-5.68,4.4-6.13,3.51,5.17,2.8,5.68-3.16,1.6-4.33-1.66c0,0-2,1.09-1,2.43s6.06,3.7,8-1.15a6,6,0,0,0-8.29-7.53,7.44,7.44,0,0,0-3.32,10.78c1.78,2.94,7.4,6.89,11.61,4.34s3.31-2,6.89-1.72,9-2,13.9-7.34S697,290.11,700.2,283s7.14-18.07,7.25-19.63-.67-2.45-1.67-1.45-17.63,5.69-31.12,3.46-16.63-6.81-17.52-5.47-.44,3.35,3.35,4.91,17.4,4,19.85,4,2.24,0,1.34,1.22-14.36,16-30,23.14S615,314.27,566.35,306c0,0-1,.14-1.27,1.61a58.85,58.85,0,0,1-31.82,42.85s-10.26,3.92-12.94,4.43-2.68,2.17-1.28,3.13,19.65,11.52,26.77,33.24,11.91,43,10.58,56.87-13.08,25.72-28.21,20.67-12.62-19.7-10.58-23.48,8-10.48,18.53-5.43c0,0,5.34,3.59,4.08,10a8.25,8.25,0,0,1-12.71,5.53s-3.12-2.91-2-6.42,7.34-3.57,8.1-.57-2.8,3.76-4,2.8-2.17,1.21-.89,2.17,7.66,2.43,7.91-2.87-7.53-9.31-11.16-4.72-3.45,10.46,3.38,13.53a9.43,9.43,0,0,0,12.61-4c1-2.36.09-4.55,2-5.48s3.79-1.1,4.3-3.54.95-14.24-1.18-21.52S529,378.35,484.11,367l-14.28-3.7-2.91-7.57s-.1-.77,2.91-.39,29.85,1,29.17-20.62c0,0-31-1.56-43.38-23.7-34.12-60.93,53.17-90.76,62.43-42.36,6.37,33.26-34.58,39.54-41.77,19.78-5.9-16.24,7.86-21.94,7.86-21.94s12.52-5.14,16.2,6c5,15.15-14.88,17.82-14.75,7.47.1-7.28,5.53-6,5.53-6s.68-2.71-.67-2.71-7.19-.1-8.25,7.57c-1.55,11.1,15.83,16,22,2.33,3.3-7.28-3.59-20.48-16.21-19.41s-18.54,15-15.92,23.48,8.25,18.15,24.36,17.66c38.31-1.15,34-68.47-15-61.06-45.69,6.91-48.07,65.09-5.76,89.77-79.87-19.07-45.31-150.38,52.26-106.2,0,0,9.13,27.5,26.11,41.55s37.48,17.38,58.18,13.28,35.25-16.56,44.51-31.07c17.59-27.54,3.07-71.46-32.88-77.63a56.65,56.65,0,0,0-11.43-21.35c-8.48-9.5-25.17-23.73-24.15-47.84S616.42,53,643.84,60Zm20.31,22.15c-1.54,2.42.54,1.55,1.74,1.21s4.56-1.82,7.21-.55c3.49,1.66,10.63,7.49,14.1.25,1.64-3.43-.36-4.78-2.1-5.17s-1.41,2.17-3.11,3-1.94-1.46-7.54-3.54S664.15,82.17,664.15,82.17Z"/><path class="cls-1" d="M640.55,82a10,10,0,0,0-12.14-2.81c-7.43,3.2-8.57,20.41,6.41,22.91,16,2.67,24-9.57,34-8.35-7,3.43-15.49,10.22-22.79,11.86-35.89,8.07-35.77-32.69-14.29-31.34A9.06,9.06,0,0,1,640.55,82Z"/><path class="cls-1" d="M633.25,108.16a22.39,22.39,0,0,0,3.21.16,31.23,31.23,0,0,0,1.13,3c.72,1.39,2.13,5.2,15.82,11.41s34.13,19.53,42.4,28.8,23.13,32,11,74.54l-2.73,9.11c-.47,1.6-1.12,2.48-.66-.1,2.14-12,5.76-21.62,5.31-34.6-.78-22.61-15-46-33-59.15-12.39-9-27-17.38-27-17.38s-7.49-3.36-12-9.21A27.91,27.91,0,0,1,633.25,108.16Z"/><path class="cls-1" d="M703.57,241.28l5.48-17.17s0-2.14,1.56-1.36,20.15,3.09,22.67,2.79,2.72-1.55,5.25,1.66S779.87,274,779.87,274s12.67,14.28,13.55,24.32-4.93,14.31-4.93,14.31-7.09,7-18.83,2.19-6.5-16.63-6.5-16.63,3.37-8.11,11.14-7.09,8.7,8.36,8,10-3.2,7.43-9.2,5c0,0-3.15-1.47-2.67-4.75s3.33-3.86,4.54-3.33,2.85,2.22,1.69,4-1.25,1.83-.48,2,3.18-1,3.43-4.16-6.38-6.76-9.76-2.89-2.6,8.74,2.61,11.15,10.82-1.74,11.78-4.63,1.42-6.74-1.54-10.37-21-20.63-32.44-27.05S735,256.89,735,256.89l.32-4.31s0-2.05-3.22-3.05S703.57,241.28,703.57,241.28Z"/><path class="cls-1" d="M537,351.2s23.29-11.51,31-42c0,0-.29-1.12,1.87-.18s12.55,2.83,13.72,2.5.94,1.17.44,1.66-11.6,12.94-13.49,14.55a8.61,8.61,0,0,0-2.22,2.39s27.21,23.26,33,39,9.05,32.08,7.13,42.23-15.16,14.13-24.29,9-5.71-15.41-1.82-18.53,11.57-3.89,14.36.76-.6,8.95-2.37,10.13-4.83.57-6.67-1.54-.77-5.5.89-6.11,4.78.11,4.72,2.06-.05,3-1.39,2.5-2.22-2.22-2.88-1.5-.34,3.16,1.88,3.55a4.21,4.21,0,0,0,4.5-3.33c.11-1.55-.77-5.72-4.05-5.78s-7.22,2.17-6.94,5.78A8,8,0,0,0,592,416c4.66.11,8-4.5,8.33-6.33s.05-3.28.89-4.22a5.09,5.09,0,0,0,1.66-3.34c.06-1.5-2.35-13.28-8.26-22.15s-21.42-19.35-28.51-22.16S537,351.2,537,351.2Z"/><path class="cls-1" d="M687.91,96.88s1.92-.19,2.49.32,3.76,4.2,4.72,4.9,7.21.41,7.91.21,1-1,1.35-2.39.91-3,1.35-3,.9,5.8.9,5.8,0,1.66-2.3,1.66c-2.7,0-11,1.06-12.71-1.73C690.72,101.16,687.91,96.88,687.91,96.88Z"/><path class="cls-1" d="M693.15,77.09s8.18-4.77,12.42-4.84,6.4,2.48,6.22,5.17-3.52,5.79-8.49,4.76-10.15-5.09-10.15-5.09ZM698,76.9s4.49,3.6,8.58,3.37c3.41-.19,4.95-5.11.2-6.2C702.89,73.18,698,76.9,698,76.9Z"/><path class="cls-1" d="M668.16,81s2.52-2.71,5.46-2.21,5.27,3.95,7.64,3.95a3.81,3.81,0,0,0,3.53-2.07c.53-.67,1.44,0,1.25.92s-1,2.92-4.65,3C676.88,84.67,675.58,79.07,668.16,81Z"/><path class="cls-1" d="M643.83,60.15s15.57-3,24.77,7.67Z"/><path class="cls-1" d="M643.46,66.73s6.71,9,20.95,4.15c0,0,.66,0,.6.55s-4,3.83-11.39,3.23a15.46,15.46,0,0,1-11.5-7.09C641.9,67.08,641.94,65.92,643.46,66.73Z"/><path class="cls-1" d="M643.48,62.64s5.37,2.12,7,2.54l-.75,3.16C648.77,68,645.89,66.72,643.48,62.64Z"/><path class="cls-1" d="M606.24,66.72a36.73,36.73,0,0,1,.42-34.52s12.14,20.67,22.07,25.43A46.73,46.73,0,0,0,606.24,66.72Z"/><path class="cls-1" d="M599.18,72.62l4-3.55s-14.31-20,1.71-39.88C604.93,29.19,584.56,46.77,599.18,72.62Z"/><path class="cls-1" d="M599.24,73.15s-16.28,15-13.2,36.1a62,62,0,0,0,16,33.47s16,16.05,19.06,27.62a318.61,318.61,0,0,0-24-23.93c-12.71-11.24-15.79-28.59-16-32.31S579.08,87,599.24,73.15Z"/><path class="cls-1" d="M530.71,225.75l8.81.24a18.87,18.87,0,0,0,11.38,6.81s8.42,18.84,31.25,29.92C614,278.19,660.34,255.3,655.9,215c-2.8-25.48-18.19-35-31.11-38.39l-.18-2.48s19.68,4.11,28.3,19.29C697.89,272.59,558.51,320.46,530.71,225.75Z"/><path class="cls-1" d="M554.55,234c27.21,6.32,72.2-11.29,70.92-54.95,1.53.44,17.89,4.17,24.59,20.48C670.76,249.94,602.8,298.21,554.55,234Z"/><path class="cls-1" d="M565.72,210.23c3.7,3.88,2.88,11.57,9.22,10.79s26.25-10.59,33-26.49c0,0,1.11-2.93,1-3.9s-2-.81-3.51-1.84-7-7.65-2.33-13.73,14.92-6.94,18.33.73c0,0,2.7,14.26-2.48,24.74-10.89,22-44.68,37.9-67.32,29.15C529.39,221.09,553.32,197.26,565.72,210.23Z"/><path class="cls-1" d="M435.49,259.55s6.57-23.28-11.8-47.7c-23.53-31.27-57.21,6.77-30.72,23.08,0,0,12.65,7.11,19.5-3.93l1-3.07s2.61,2.8,2.84,4.7-3.11,15.77-17.1,16.78c-30.81,2.22-42.83-38.24-12.58-57.87,12-7.77,34.3-5.51,47.74,9s13.53,40.75,13.53,40.75Z"/><path class="cls-1" d="M450.56,238.47l8.65-8.32S457.1,208.63,443,192.62s-43.1-26.24-69.46-8.68-19.4,48.57-12,58.14c20.1,25.87,57.95,15.86,57.44-5.29,0,0-4.25,10.35-13.84,13.83s-26.64.85-35.67-15.12.58-33,6.74-39.76C402.54,167,449.92,188.48,450.56,238.47Z"/><path class="cls-1" d="M707.88,75.82A1.83,1.83,0,0,1,706,78.88l-2.47-.83c-.77-.26-2.66-.06-2.31-.79C702.08,75.37,706,74.13,707.88,75.82Z"/><rect class="cls-2" x="652.35" y="64.65" width="3.85" height="6.59" rx="1.32" transform="translate(436.4 688.62) rotate(-76.59)"/><path class="cls-1" d="M666.28,68.26s-5.74-.53-7.4-.9l-.75,3.17C659.14,70.67,662.3,70.82,666.28,68.26Z"/><path class="cls-1" d="M338.59,415.93l71.27,211.76-146.27-.07,75-211.69ZM472,399.73h8.31V387.25H421v12.48h22.56l-.33,244.68L353.88,387.25H333.71L214.38,723.31l-33.26-.22.6-127.56L277.9,400.32l23.75-.59V387.25H228.09l0,12.59,19.05.05L160.94,583.94,76,399.64H95.49l.05-12.39H35.09v12.21l27.14.18,90,195.87-.2,13.8.59,114.59H129.48v12.47h117V723.9l-17.13,0,29-82.08H413.44c8.8,26.16,17.8,55.33,26.53,81.51l-33.07-.09-.18,13.15h87.86V723.9H472l.49-101.49,52.24-.15,55.9,101.64H562.27l0,12.47H683.38V399.73h43.33V723.9l-22,.63v11.84H776V724.5H753.42V399.13h43.41l1.72,207.81v11.28l.58,5.94.6,5.34.6,3.56.59,3.57.59,3.56.59,2.38.6,3,.59,2.37.6,1.79.59,2.37.59,1.78.6,2.37.59,1.78.6,1.78.58,1.78.6,1.78.6,1.79.59,1.78.59,1.18.6,1.2.6,1.18.58,1.19.59,1.19.6,1.18.6,1.19.59,1.18.59,1.2.6.59.59,1.18.59,1.19.6.59.6,1.2.58,1.18.59.6.6.59.6,1.19.58.59.6,1.19.6.59.59.6.59.59.6,1.19.59.59.59.59.6.6.59.6.59.58.6.6.6,1.19.59.58.59.61.59.6.6.58.59.59.59.6.6.59.6.59.58.6.6.6.6.59.59.59.58.59.61.61.59.58.59.59.59.6.6.6.59.59.59.59.6.6.6.59,1.18.59.59.6.6.59.59.59,1.19.6.59.59.6.6,1.19.59.58.6,1.2.59.59.59,1.19.59.59.6,1.19.6.59.58,1.18.6,1.2.6,1.18.59.6.59,1.18.6,1.2.6,1.17.57,1.79.6,1.19.6,1.18.59,1.78.59,1.19.6,1.78.6,1.19.59,1.79.59,2.37.59,1.79.61,2.36.57,2.37.6,3,.6,4.16.6,4.16.58h37.4l4.75-.58,4.15-.6,3-.6,2.38-.6,2.37-.57,1.79-.61,1.77-.59,1.78-.59,1.19-.59,1.78-.6,1.19-.6,1.19-.59,1.19-.59,1.77-.6,1.2-.6L963,721l.6-.6,1.18-.6,1.19-.59,1.18-.59.6-.6,1.18-.6,1.2-.58.58-.6,1.19-.6.6-.59,1.18-.59.6-.59,1.18-.6.6-.59.6-.6,1.18-.59.6-.6.59-.59.59-.59,1.19-.6.59-.59.6-.59.59-.6.59-.59,1.19-.59.6-.6.59-.6.59-.59.6-.58.59-.61.59-.59.6-.59.6-.59.58-.6.59-.6.61-.59.59-.59.58-.6.6-.59.6-1.18.59-.61.59-.58.59-.59.61-.6.58-.6.59-.58.6-.6.6-.6.59-.59.59-1.18.6-.6.59-.59.59-1.19.6-.6.59-.59.59-1.19.6-.59.59-1.19.59-.59.6-.59.6-1.2.59-1.18.59-.6.6-1.18.59-1.19.59-1.18.59-1.2.6-.59.6-1.18.58-1.19.6-1.19.6-1.78.59-1.19.58-1.18.6-1.78.61-1.2.58-2.37.59-1.78.6-1.79.6-2.37.58-1.78.6-2.38.6-1.77.59-2.38.59-2.38.59-3,.6-2.38.59-3,.59-3.56.6-4.15.59-6,.59-8.31V596.25L1023,399.73h22V387.25H973.67v11.88l22,.6-1.2,205.42-.59,10.1-.59,18.4-.6,8.32-.6,4.75-.58,4.15-.59,3-.61,3-.59,2.38-.58,2.37-.6,2.38-.6,1.78-.59,3-.59,2.38-.6,1.78-.59,1.77L985,676.4l-.6,1.2-.59,1.18-.6,1.19-.59,1.18-.59,1.2-.6,1.18-.59,1.19-.6.59-.59,1.19-.59,1.19-.59.59-.6,1.19-.6.6-.58.59-.6,1.18-.6.6-.59.6-.59.58-.6.6-.6.6-.58.59-.6.58-.59,1.21-.6.58-.58.59-1.2.6-.59.59-.59.59-.6.6-.6.6-.58.59-1.19.59-.59.59-.59.61-.6.58-1.18.59-.6.6-1.19.6-.59.59-1.19.59-1.19.6-.59.59-1.19.59-1.19.6-1.18.59-1.19.59-1.19.6-1.18.59-1.2.6-1.18.59-1.78.6-1.79.59-1.77.59-1.78.59-1.78.6-2.38.6-3,.58-4.16.6h-35l-4.15-.6-3.57-.58-3-.6-2.38-.6-1.78-.59-1.77-.59-2.38-.59-1.2-.6-1.78-.59-1.18-.6-1.19-.59-1.19-.6-.6-.59-1.18-.59-.59-.6-1.19-.59-.59-.59-.6-.6-1.18-.59-.6-.59-.6-.6-1.17-.6-.61-.59-.59-.58-.59-.61-.59-.59-1.19-.59-.59-.59-.6-.6-.6-.6-.58-.59-.6-.59-.59-.6-.6-.59-.59-.58-.59-1.21-.6-.58-.59-.59-.59-.6-.6-1.18-.6-.6-.58-.6-.6-1.18-.59-.59-.6-1.19-.59-.6-.6-1.19-.59-.59-.59-1.19-.6-1.18-.59-.6-.6-1.18-.58-1.2-.6-1.18-.6-.6-.59-1.18-.59-1.79-.6-1.18-.59-1.77-.59-1.21-.59-1.77-.61-1.78-.58-1.78-.59-2.37-.6-1.79-.6-2.37-.58-2.38-.6-3-.6-3.56-.59-4.15-.59-4.16-.6-6.53-.59-11.88-.59-14.25-.59-11.87-.6-198.9H840.7v16h12.46v-28.5H625.78v27.91h11.88v-16h17.21V724.5H615.69L556.49,622c52.68-6.4,74.38-51.59,81.76-88.65l.6-2.38.59-3,.59-4.16.59-4.15.61-5.34.59-10.1v-5.33l-.59-9.51-.61-4.75-.59-4.16-.59-3.56-.59-3-.6-2.95-.59-2.38-.59-2.37-.6-2.38-.6-2.38-.58-1.78-.59-1.78-.6-1.78-.6-1.19-.58-1.78-.6-1.19-.6-1.19-.59-1.77-.59-1.2-.6-1.18-.6-1.19-.58-1.18-.6-1.19-.59-1.19-.6-1.19-.59-1.19-.6-1.18-.59-1.19-.59-1.19-.6-1.19-.59-.59-.6-1.19-.58-1.18-.6-.6L621,430l-.58-.6-.6-1.19-.6-.58-.59-1.21-.58-.58-.61-1.19-.6-.59-.58-.59-.6-.6-.59-1.19-.6-.59h-1.18l-.6,40.37-.59,48.1-.59,10.69c-4.29,46.91-17.93,69.67-58.78,83.11-7.16,2.39-15.08,3.34-22.56,4.16l-7.71.6H472Z"/><rect class="cls-2" x="245.36" y="793.53" width="92.41" height="5.15"/><rect class="cls-2" x="742.23" y="793.53" width="92.41" height="5.15"/><path class="cls-1" d="M381.26,785.27l-3.11,6.13-.53-.3c0-.13,0-.23,0-.31,0-.43-.37-.9-1.1-1.39a13.65,13.65,0,0,0-8-2.37,11.83,11.83,0,0,0-3.58.49,4.28,4.28,0,0,0-1.82,1.15,2.46,2.46,0,0,0-.7,1.67c0,1,.6,1.64,1.78,2a28.58,28.58,0,0,0,3.94.57l3,.31a24.59,24.59,0,0,1,4.32.78,9.94,9.94,0,0,1,2.93,1.4,6.54,6.54,0,0,1,2.06,2.46,7.32,7.32,0,0,1,.75,3.26,7.48,7.48,0,0,1-1.77,4.9,9.57,9.57,0,0,1-5,2.89,20,20,0,0,1-5.41.7,23,23,0,0,1-10.22-2.48,5.05,5.05,0,0,0-1.28-.5,1.64,1.64,0,0,0-.78.42l-.56-.29,2.83-6.4.55.27v.25a2.12,2.12,0,0,0,.82,1.58,10.34,10.34,0,0,0,3.85,1.91,16.47,16.47,0,0,0,4.92.81,9.85,9.85,0,0,0,4.34-.87A4.08,4.08,0,0,0,375.1,803a2.68,2.68,0,0,0,.6-1.65,1.91,1.91,0,0,0-1.4-1.85,18,18,0,0,0-3.93-.71l-2.94-.3a40.64,40.64,0,0,1-4.19-.58,11,11,0,0,1-2.45-.9,6.19,6.19,0,0,1-2.72-2.57,7,7,0,0,1-.9-3.56,7.19,7.19,0,0,1,2.27-5.46q3-2.85,8.95-2.85a20.14,20.14,0,0,1,4.65.51,35.31,35.31,0,0,1,5.4,1.86,5.89,5.89,0,0,0,1.35.44,1.61,1.61,0,0,0,.94-.44l.53.29Zm24.25,2.1v19.78a1.34,1.34,0,0,0,.27.9,2,2,0,0,0,1,.49v.61h-8.15v-.61a2,2,0,0,0,1-.49,1.34,1.34,0,0,0,.27-.9V787.37h-8.1a1.27,1.27,0,0,0-.88.26,1.87,1.87,0,0,0-.5.94h-.61v-6.74h.61a2.06,2.06,0,0,0,.51,1,1.23,1.23,0,0,0,.87.27h21.87a1.31,1.31,0,0,0,.9-.27,1.9,1.9,0,0,0,.5-1h.61v6.74H415a1.87,1.87,0,0,0-.5-.94,1.31,1.31,0,0,0-.9-.26ZM444,802.5H432.09l-1.75,3.67a3,3,0,0,0-.37,1.2c0,.56.43,1,1.29,1.17v.61h-8.64v-.61a2.36,2.36,0,0,0,1.17-.53,5.12,5.12,0,0,0,.91-1.5l9.6-20a3.85,3.85,0,0,0,.45-1.53c0-.59-.36-1-1.11-1.26v-.61h9.25v.61c-.75.22-1.12.6-1.12,1.13a2.83,2.83,0,0,0,.36,1.26l9.94,20.1a6.61,6.61,0,0,0,1.11,1.75,2.41,2.41,0,0,0,1.28.62v.61h-9.59v-.61c.84-.14,1.26-.53,1.26-1.19a2.86,2.86,0,0,0-.39-1.18L444,802.5Zm-1.64-3.57-4.23-9.3-4.3,9.3Zm35.44-.69v8.91a1.29,1.29,0,0,0,.28.9,2,2,0,0,0,1,.49v.61H470.8v-.61a2.18,2.18,0,0,0,1-.49,1.3,1.3,0,0,0,.29-.9v-8.91l-8.43-11.86a12.15,12.15,0,0,0-1.71-2.06,2.84,2.84,0,0,0-1.48-.64v-.61h10.31v.61c-.86.14-1.29.54-1.29,1.19a4.17,4.17,0,0,0,.78,1.51l4.7,7,4.84-7a3.73,3.73,0,0,0,.78-1.53,1,1,0,0,0-.34-.76,1.81,1.81,0,0,0-.94-.41v-.61h10.09v.61a2.81,2.81,0,0,0-1.48.64,12.15,12.15,0,0,0-1.71,2.06l-8.43,11.86Zm64.94,1.94,3.63,5.45-.5.35a1.46,1.46,0,0,0-.88-.5,6.93,6.93,0,0,0-1.93.92,26.83,26.83,0,0,1-5.53,2.55,19,19,0,0,1-5.34.66A16.61,16.61,0,0,1,522,806.69a12.53,12.53,0,0,1-3.67-4.23,13.23,13.23,0,0,1-1.54-6.36,12.83,12.83,0,0,1,2.77-8.23q4.17-5.25,12.59-5.26a19.12,19.12,0,0,1,5.31.65,27.11,27.11,0,0,1,5.54,2.56,6.72,6.72,0,0,0,1.93.89,1.49,1.49,0,0,0,.88-.49l.5.35L542.69,792l-.52-.34a3.66,3.66,0,0,0,0-.52,1.48,1.48,0,0,0-.48-1,8.21,8.21,0,0,0-1.7-1.17,14.36,14.36,0,0,0-7.16-1.91,10.67,10.67,0,0,0-7.13,2.24,9,9,0,0,0,0,13.67,10.72,10.72,0,0,0,7.13,2.24,14.27,14.27,0,0,0,7.16-1.92,7.49,7.49,0,0,0,1.7-1.17,1.48,1.48,0,0,0,.48-1,3.22,3.22,0,0,0,0-.5l.52-.37Zm21.1,4.68h16a1.36,1.36,0,0,0,.9-.27,2,2,0,0,0,.5-1h.61v6.75h-.61a2,2,0,0,0-.5-1,1.36,1.36,0,0,0-.9-.27H556.87v-.61a2,2,0,0,0,1-.49,1.34,1.34,0,0,0,.27-.9V785.08a1.31,1.31,0,0,0-.27-.9,2,2,0,0,0-1-.5v-.61H565v.61a2,2,0,0,0-1,.49,1.41,1.41,0,0,0-.26.91v19.78Zm46.52-2.36H598.45l-1.76,3.67a2.92,2.92,0,0,0-.36,1.2c0,.56.42,1,1.28,1.17v.61H589v-.61a2.32,2.32,0,0,0,1.16-.53,5.09,5.09,0,0,0,.92-1.5l9.59-20a3.74,3.74,0,0,0,.46-1.53c0-.59-.37-1-1.11-1.26v-.61h9.25v.61c-.75.22-1.13.6-1.13,1.13a2.73,2.73,0,0,0,.37,1.26l9.94,20.1a6.37,6.37,0,0,0,1.11,1.75,2.42,2.42,0,0,0,1.27.62v.61h-9.58v-.61c.84-.14,1.25-.53,1.25-1.19a3,3,0,0,0-.38-1.18l-1.79-3.67Zm-1.64-3.57-4.23-9.3-4.3,9.3Zm45.26-13.66-3.11,6.13-.54-.3a1.9,1.9,0,0,0,0-.31c0-.43-.37-.9-1.11-1.39a13.63,13.63,0,0,0-8-2.37,11.76,11.76,0,0,0-3.57.49,4.28,4.28,0,0,0-1.82,1.15,2.46,2.46,0,0,0-.7,1.67c0,1,.6,1.64,1.78,2a28.58,28.58,0,0,0,3.94.57l3,.31a24.59,24.59,0,0,1,4.32.78,10.06,10.06,0,0,1,2.93,1.4,6.43,6.43,0,0,1,2,2.46,7.2,7.2,0,0,1,.76,3.26,7.48,7.48,0,0,1-1.77,4.9,9.61,9.61,0,0,1-5,2.89,20.1,20.1,0,0,1-5.41.7,23,23,0,0,1-10.22-2.48,5.05,5.05,0,0,0-1.28-.5,1.64,1.64,0,0,0-.78.42l-.56-.29,2.83-6.4.55.27v.25a2.08,2.08,0,0,0,.82,1.58,10.36,10.36,0,0,0,3.84,1.91,16.59,16.59,0,0,0,4.93.81,9.88,9.88,0,0,0,4.34-.87,4.08,4.08,0,0,0,1.58-1.27,2.68,2.68,0,0,0,.6-1.65,1.91,1.91,0,0,0-1.4-1.85,18.32,18.32,0,0,0-3.93-.71l-2.95-.3a40.76,40.76,0,0,1-4.18-.58,11,11,0,0,1-2.45-.9,6.26,6.26,0,0,1-2.73-2.57,7,7,0,0,1-.9-3.56,7.2,7.2,0,0,1,2.28-5.46q3-2.85,8.94-2.85a20.17,20.17,0,0,1,4.66.51,35.31,35.31,0,0,1,5.4,1.86,5.89,5.89,0,0,0,1.35.44,1.61,1.61,0,0,0,.94-.44l.53.29Zm34.82,0-3.11,6.13-.54-.3c0-.13,0-.23,0-.31,0-.43-.37-.9-1.11-1.39a13.63,13.63,0,0,0-8-2.37,11.72,11.72,0,0,0-3.57.49,4.28,4.28,0,0,0-1.82,1.15,2.42,2.42,0,0,0-.7,1.67c0,1,.59,1.64,1.77,2a29.13,29.13,0,0,0,3.94.57l3,.31A24.73,24.73,0,0,1,683,794a10.06,10.06,0,0,1,2.93,1.4,6.52,6.52,0,0,1,2.05,2.46,7.33,7.33,0,0,1,.76,3.26,7.43,7.43,0,0,1-1.78,4.9,9.57,9.57,0,0,1-5,2.89,20,20,0,0,1-5.4.7,23,23,0,0,1-10.22-2.48,5.2,5.2,0,0,0-1.28-.5,1.62,1.62,0,0,0-.79.42l-.55-.29,2.82-6.4.56.27v.25a2.08,2.08,0,0,0,.82,1.58,10.36,10.36,0,0,0,3.84,1.91,16.59,16.59,0,0,0,4.93.81,9.91,9.91,0,0,0,4.34-.87,4.08,4.08,0,0,0,1.58-1.27,2.67,2.67,0,0,0,.59-1.65,1.9,1.9,0,0,0-1.39-1.85,18.31,18.31,0,0,0-3.94-.71l-2.94-.3a40.76,40.76,0,0,1-4.18-.58,10.85,10.85,0,0,1-2.45-.9,6.21,6.21,0,0,1-2.73-2.57,7,7,0,0,1-.9-3.56,7.2,7.2,0,0,1,2.28-5.46q3-2.85,8.94-2.85a20.23,20.23,0,0,1,4.66.51,35.25,35.25,0,0,1,5.39,1.86,6.06,6.06,0,0,0,1.36.44,1.59,1.59,0,0,0,.93-.44l.54.29Zm25,13v8.91a1.29,1.29,0,0,0,.28.9,2.08,2.08,0,0,0,1,.49v.61h-8.19v-.61a2.13,2.13,0,0,0,1-.49,1.3,1.3,0,0,0,.29-.9v-8.91l-8.43-11.86a12.15,12.15,0,0,0-1.71-2.06,2.84,2.84,0,0,0-1.48-.64v-.61h10.31v.61c-.86.14-1.29.54-1.29,1.19a4.17,4.17,0,0,0,.78,1.51l4.7,7,4.84-7a3.73,3.73,0,0,0,.78-1.53,1,1,0,0,0-.34-.76,1.81,1.81,0,0,0-.94-.41v-.61h10.09v.61a2.84,2.84,0,0,0-1.48.64,12.15,12.15,0,0,0-1.71,2.06Z"/></svg>